<mxfile host="Electron" modified="2024-05-07T19:17:41.771Z" agent="Mozilla/5.0 (Windows NT 10.0; Win64; x64) AppleWebKit/537.36 (KHTML, like Gecko) draw.io/24.2.5 Chrome/120.0.6099.109 Electron/28.1.0 Safari/537.36" etag="x83UpfAJS19UymydMDgq" version="24.2.5" type="device">
  <diagram name="Page-1" id="Bv0qyg8yd-PSnGT1yDmR">
    <mxGraphModel dx="2635" dy="496" grid="1" gridSize="10" guides="1" tooltips="1" connect="1" arrows="1" fold="1" page="1" pageScale="1" pageWidth="1855" pageHeight="1313" math="0" shadow="0">
      <root>
        <mxCell id="0" />
        <mxCell id="1" parent="0" />
        <mxCell id="Sk-MJQxs3zckdXy--k0k-6" style="edgeStyle=orthogonalEdgeStyle;rounded=0;orthogonalLoop=1;jettySize=auto;html=1;exitX=0.5;exitY=1;exitDx=0;exitDy=0;endArrow=none;endFill=0;" parent="1" source="Sk-MJQxs3zckdXy--k0k-1" edge="1">
          <mxGeometry relative="1" as="geometry">
            <mxPoint x="720" y="330" as="targetPoint" />
          </mxGeometry>
        </mxCell>
        <mxCell id="Sk-MJQxs3zckdXy--k0k-1" value="User" style="rounded=0;whiteSpace=wrap;html=1;" parent="1" vertex="1">
          <mxGeometry x="660" y="170" width="120" height="60" as="geometry" />
        </mxCell>
        <mxCell id="Sk-MJQxs3zckdXy--k0k-2" value="&lt;b&gt;&lt;u&gt;Username&lt;/u&gt;&lt;/b&gt;" style="ellipse;whiteSpace=wrap;html=1;" parent="1" vertex="1">
          <mxGeometry x="780" y="60" width="110" height="60" as="geometry" />
        </mxCell>
        <mxCell id="Sk-MJQxs3zckdXy--k0k-3" value="Password" style="ellipse;whiteSpace=wrap;html=1;" parent="1" vertex="1">
          <mxGeometry x="550" y="60" width="110" height="60" as="geometry" />
        </mxCell>
        <mxCell id="Sk-MJQxs3zckdXy--k0k-4" value="" style="endArrow=none;html=1;rounded=0;" parent="1" edge="1">
          <mxGeometry width="50" height="50" relative="1" as="geometry">
            <mxPoint x="770" y="170" as="sourcePoint" />
            <mxPoint x="820" y="120" as="targetPoint" />
          </mxGeometry>
        </mxCell>
        <mxCell id="Sk-MJQxs3zckdXy--k0k-5" value="" style="endArrow=none;html=1;rounded=0;entryX=0.09;entryY=-0.056;entryDx=0;entryDy=0;entryPerimeter=0;exitX=0.781;exitY=0.939;exitDx=0;exitDy=0;exitPerimeter=0;" parent="1" source="Sk-MJQxs3zckdXy--k0k-3" target="Sk-MJQxs3zckdXy--k0k-1" edge="1">
          <mxGeometry width="50" height="50" relative="1" as="geometry">
            <mxPoint x="600" y="190" as="sourcePoint" />
            <mxPoint x="650" y="140" as="targetPoint" />
          </mxGeometry>
        </mxCell>
        <mxCell id="Sk-MJQxs3zckdXy--k0k-7" value="" style="endArrow=none;html=1;rounded=0;entryX=0.565;entryY=0.985;entryDx=0;entryDy=0;entryPerimeter=0;" parent="1" target="Sk-MJQxs3zckdXy--k0k-1" edge="1">
          <mxGeometry width="50" height="50" relative="1" as="geometry">
            <mxPoint x="728" y="330" as="sourcePoint" />
            <mxPoint x="800" y="260" as="targetPoint" />
          </mxGeometry>
        </mxCell>
        <mxCell id="Sk-MJQxs3zckdXy--k0k-8" value="d" style="ellipse;whiteSpace=wrap;html=1;aspect=fixed;" parent="1" vertex="1">
          <mxGeometry x="700" y="320" width="50" height="50" as="geometry" />
        </mxCell>
        <mxCell id="Sk-MJQxs3zckdXy--k0k-9" value="" style="endArrow=none;html=1;rounded=0;entryX=0;entryY=1;entryDx=0;entryDy=0;" parent="1" target="Sk-MJQxs3zckdXy--k0k-8" edge="1">
          <mxGeometry width="50" height="50" relative="1" as="geometry">
            <mxPoint x="670" y="410" as="sourcePoint" />
            <mxPoint x="700" y="364" as="targetPoint" />
          </mxGeometry>
        </mxCell>
        <mxCell id="Sk-MJQxs3zckdXy--k0k-10" value="" style="endArrow=none;html=1;rounded=0;entryX=0.09;entryY=-0.056;entryDx=0;entryDy=0;entryPerimeter=0;exitX=1;exitY=1;exitDx=0;exitDy=0;" parent="1" source="Sk-MJQxs3zckdXy--k0k-8" edge="1">
          <mxGeometry width="50" height="50" relative="1" as="geometry">
            <mxPoint x="750" y="360" as="sourcePoint" />
            <mxPoint x="785" y="411" as="targetPoint" />
          </mxGeometry>
        </mxCell>
        <mxCell id="qP41RjbDTBVxGbaWCLA5-1" style="edgeStyle=orthogonalEdgeStyle;rounded=0;orthogonalLoop=1;jettySize=auto;html=1;exitX=1;exitY=0.5;exitDx=0;exitDy=0;endArrow=none;endFill=0;" edge="1" parent="1" source="Sk-MJQxs3zckdXy--k0k-11" target="qP41RjbDTBVxGbaWCLA5-2">
          <mxGeometry relative="1" as="geometry">
            <mxPoint x="940" y="440" as="targetPoint" />
          </mxGeometry>
        </mxCell>
        <mxCell id="Sk-MJQxs3zckdXy--k0k-11" value="Staff" style="rounded=0;whiteSpace=wrap;html=1;" parent="1" vertex="1">
          <mxGeometry x="760" y="410" width="120" height="60" as="geometry" />
        </mxCell>
        <mxCell id="Sk-MJQxs3zckdXy--k0k-12" value="Student/ Faculty" style="rounded=0;whiteSpace=wrap;html=1;" parent="1" vertex="1">
          <mxGeometry x="610" y="410" width="120" height="60" as="geometry" />
        </mxCell>
        <mxCell id="Sk-MJQxs3zckdXy--k0k-13" value="&lt;font style=&quot;font-size: 24px;&quot;&gt;U&lt;/font&gt;" style="text;html=1;align=center;verticalAlign=middle;resizable=0;points=[];autosize=1;strokeColor=none;fillColor=none;rotation=-45;" parent="1" vertex="1">
          <mxGeometry x="740" y="360" width="40" height="40" as="geometry" />
        </mxCell>
        <mxCell id="Sk-MJQxs3zckdXy--k0k-15" value="&lt;font style=&quot;font-size: 24px;&quot;&gt;U&lt;/font&gt;" style="text;html=1;align=center;verticalAlign=middle;resizable=0;points=[];autosize=1;strokeColor=none;fillColor=none;rotation=45;" parent="1" vertex="1">
          <mxGeometry x="670" y="360" width="40" height="40" as="geometry" />
        </mxCell>
        <mxCell id="Sk-MJQxs3zckdXy--k0k-21" value="Name" style="ellipse;whiteSpace=wrap;html=1;" parent="1" vertex="1">
          <mxGeometry x="900" y="330" width="110" height="60" as="geometry" />
        </mxCell>
        <mxCell id="Sk-MJQxs3zckdXy--k0k-22" value="" style="endArrow=none;html=1;rounded=0;exitX=0.877;exitY=0.025;exitDx=0;exitDy=0;exitPerimeter=0;" parent="1" source="Sk-MJQxs3zckdXy--k0k-11" edge="1">
          <mxGeometry width="50" height="50" relative="1" as="geometry">
            <mxPoint x="850" y="420" as="sourcePoint" />
            <mxPoint x="900" y="370" as="targetPoint" />
          </mxGeometry>
        </mxCell>
        <mxCell id="Sk-MJQxs3zckdXy--k0k-23" value="Email" style="ellipse;whiteSpace=wrap;html=1;" parent="1" vertex="1">
          <mxGeometry x="900" y="500" width="110" height="60" as="geometry" />
        </mxCell>
        <mxCell id="Sk-MJQxs3zckdXy--k0k-24" value="" style="endArrow=none;html=1;rounded=0;exitX=0.869;exitY=0.998;exitDx=0;exitDy=0;exitPerimeter=0;entryX=0.091;entryY=0.167;entryDx=0;entryDy=0;entryPerimeter=0;" parent="1" source="Sk-MJQxs3zckdXy--k0k-11" target="Sk-MJQxs3zckdXy--k0k-23" edge="1">
          <mxGeometry width="50" height="50" relative="1" as="geometry">
            <mxPoint x="868" y="422" as="sourcePoint" />
            <mxPoint x="910" y="380" as="targetPoint" />
          </mxGeometry>
        </mxCell>
        <mxCell id="Sk-MJQxs3zckdXy--k0k-25" value="" style="endArrow=none;html=1;rounded=0;" parent="1" edge="1">
          <mxGeometry width="50" height="50" relative="1" as="geometry">
            <mxPoint x="630" y="410" as="sourcePoint" />
            <mxPoint x="580" y="370" as="targetPoint" />
          </mxGeometry>
        </mxCell>
        <mxCell id="Sk-MJQxs3zckdXy--k0k-26" value="Name" style="ellipse;whiteSpace=wrap;html=1;" parent="1" vertex="1">
          <mxGeometry x="520" y="310" width="110" height="60" as="geometry" />
        </mxCell>
        <mxCell id="Sk-MJQxs3zckdXy--k0k-27" value="" style="endArrow=none;html=1;rounded=0;entryX=0;entryY=0.25;entryDx=0;entryDy=0;" parent="1" target="Sk-MJQxs3zckdXy--k0k-12" edge="1">
          <mxGeometry width="50" height="50" relative="1" as="geometry">
            <mxPoint x="490" y="350" as="sourcePoint" />
            <mxPoint x="570" y="420" as="targetPoint" />
          </mxGeometry>
        </mxCell>
        <mxCell id="Sk-MJQxs3zckdXy--k0k-28" value="DOB" style="ellipse;whiteSpace=wrap;html=1;" parent="1" vertex="1">
          <mxGeometry x="410" y="290" width="110" height="60" as="geometry" />
        </mxCell>
        <mxCell id="Sk-MJQxs3zckdXy--k0k-29" value="" style="endArrow=none;html=1;rounded=0;entryX=0;entryY=0.5;entryDx=0;entryDy=0;" parent="1" target="Sk-MJQxs3zckdXy--k0k-12" edge="1">
          <mxGeometry width="50" height="50" relative="1" as="geometry">
            <mxPoint x="430" y="390" as="sourcePoint" />
            <mxPoint x="680" y="270" as="targetPoint" />
          </mxGeometry>
        </mxCell>
        <mxCell id="Sk-MJQxs3zckdXy--k0k-31" value="Gender" style="ellipse;whiteSpace=wrap;html=1;" parent="1" vertex="1">
          <mxGeometry x="330" y="340" width="110" height="60" as="geometry" />
        </mxCell>
        <mxCell id="Sk-MJQxs3zckdXy--k0k-32" value="" style="endArrow=none;html=1;rounded=0;entryX=0;entryY=1;entryDx=0;entryDy=0;exitX=1;exitY=0.5;exitDx=0;exitDy=0;" parent="1" source="Sk-MJQxs3zckdXy--k0k-33" target="Sk-MJQxs3zckdXy--k0k-12" edge="1">
          <mxGeometry width="50" height="50" relative="1" as="geometry">
            <mxPoint x="470" y="460" as="sourcePoint" />
            <mxPoint x="650" y="490" as="targetPoint" />
          </mxGeometry>
        </mxCell>
        <mxCell id="Sk-MJQxs3zckdXy--k0k-33" value="Is Debarred" style="ellipse;whiteSpace=wrap;html=1;" parent="1" vertex="1">
          <mxGeometry x="390" y="460" width="110" height="60" as="geometry" />
        </mxCell>
        <mxCell id="Sk-MJQxs3zckdXy--k0k-34" value="" style="endArrow=none;html=1;rounded=0;entryX=0.25;entryY=0;entryDx=0;entryDy=0;" parent="1" target="Sk-MJQxs3zckdXy--k0k-12" edge="1">
          <mxGeometry width="50" height="50" relative="1" as="geometry">
            <mxPoint x="640" y="300" as="sourcePoint" />
            <mxPoint x="650" y="390" as="targetPoint" />
          </mxGeometry>
        </mxCell>
        <mxCell id="Sk-MJQxs3zckdXy--k0k-35" value="Address" style="ellipse;whiteSpace=wrap;html=1;" parent="1" vertex="1">
          <mxGeometry x="580" y="240" width="110" height="60" as="geometry" />
        </mxCell>
        <mxCell id="Sk-MJQxs3zckdXy--k0k-36" value="" style="endArrow=none;html=1;rounded=0;entryX=0;entryY=0.75;entryDx=0;entryDy=0;" parent="1" target="Sk-MJQxs3zckdXy--k0k-12" edge="1">
          <mxGeometry width="50" height="50" relative="1" as="geometry">
            <mxPoint x="420" y="440" as="sourcePoint" />
            <mxPoint x="650" y="390" as="targetPoint" />
          </mxGeometry>
        </mxCell>
        <mxCell id="Sk-MJQxs3zckdXy--k0k-37" value="Is Faculty" style="ellipse;whiteSpace=wrap;html=1;" parent="1" vertex="1">
          <mxGeometry x="320" y="410" width="110" height="60" as="geometry" />
        </mxCell>
        <mxCell id="Sk-MJQxs3zckdXy--k0k-38" value="" style="endArrow=none;html=1;rounded=0;" parent="1" edge="1">
          <mxGeometry width="50" height="50" relative="1" as="geometry">
            <mxPoint x="560" y="520" as="sourcePoint" />
            <mxPoint x="630" y="470" as="targetPoint" />
          </mxGeometry>
        </mxCell>
        <mxCell id="Sk-MJQxs3zckdXy--k0k-39" value="Penalty" style="ellipse;whiteSpace=wrap;html=1;" parent="1" vertex="1">
          <mxGeometry x="470" y="510" width="110" height="60" as="geometry" />
        </mxCell>
        <mxCell id="Sk-MJQxs3zckdXy--k0k-41" value="" style="endArrow=none;html=1;rounded=0;entryX=0.25;entryY=1;entryDx=0;entryDy=0;" parent="1" target="Sk-MJQxs3zckdXy--k0k-12" edge="1">
          <mxGeometry width="50" height="50" relative="1" as="geometry">
            <mxPoint x="590" y="580" as="sourcePoint" />
            <mxPoint x="660" y="530" as="targetPoint" />
          </mxGeometry>
        </mxCell>
        <mxCell id="Sk-MJQxs3zckdXy--k0k-42" value="Dept" style="ellipse;whiteSpace=wrap;html=1;" parent="1" vertex="1">
          <mxGeometry x="500" y="570" width="110" height="60" as="geometry" />
        </mxCell>
        <mxCell id="Sk-MJQxs3zckdXy--k0k-43" value="Issues" style="rhombus;whiteSpace=wrap;html=1;" parent="1" vertex="1">
          <mxGeometry x="625" y="770" width="130" height="80" as="geometry" />
        </mxCell>
        <mxCell id="Sk-MJQxs3zckdXy--k0k-44" value="" style="endArrow=none;html=1;rounded=0;entryX=0.669;entryY=0.996;entryDx=0;entryDy=0;entryPerimeter=0;exitX=0.5;exitY=0;exitDx=0;exitDy=0;" parent="1" source="Sk-MJQxs3zckdXy--k0k-43" target="Sk-MJQxs3zckdXy--k0k-12" edge="1">
          <mxGeometry width="50" height="50" relative="1" as="geometry">
            <mxPoint x="690" y="610" as="sourcePoint" />
            <mxPoint x="610" y="450" as="targetPoint" />
          </mxGeometry>
        </mxCell>
        <mxCell id="Sk-MJQxs3zckdXy--k0k-58" value="&lt;font style=&quot;font-size: 15px;&quot;&gt;M&lt;/font&gt;" style="edgeLabel;html=1;align=center;verticalAlign=middle;resizable=0;points=[];" parent="Sk-MJQxs3zckdXy--k0k-44" vertex="1" connectable="0">
          <mxGeometry x="-0.7536" y="3" relative="1" as="geometry">
            <mxPoint x="-7" y="-3" as="offset" />
          </mxGeometry>
        </mxCell>
        <mxCell id="Sk-MJQxs3zckdXy--k0k-45" value="" style="endArrow=none;html=1;rounded=0;entryX=0.687;entryY=0.192;entryDx=0;entryDy=0;entryPerimeter=0;" parent="1" target="Sk-MJQxs3zckdXy--k0k-43" edge="1">
          <mxGeometry width="50" height="50" relative="1" as="geometry">
            <mxPoint x="760" y="750" as="sourcePoint" />
            <mxPoint x="590" y="690" as="targetPoint" />
          </mxGeometry>
        </mxCell>
        <mxCell id="Sk-MJQxs3zckdXy--k0k-46" value="ISSUE_ID" style="ellipse;whiteSpace=wrap;html=1;" parent="1" vertex="1">
          <mxGeometry x="740" y="700" width="110" height="60" as="geometry" />
        </mxCell>
        <mxCell id="Sk-MJQxs3zckdXy--k0k-47" value="" style="endArrow=none;html=1;rounded=0;exitX=0.839;exitY=0.352;exitDx=0;exitDy=0;exitPerimeter=0;" parent="1" source="Sk-MJQxs3zckdXy--k0k-43" edge="1">
          <mxGeometry width="50" height="50" relative="1" as="geometry">
            <mxPoint x="780" y="840" as="sourcePoint" />
            <mxPoint x="800" y="790" as="targetPoint" />
          </mxGeometry>
        </mxCell>
        <mxCell id="Sk-MJQxs3zckdXy--k0k-49" value="Date of Issue" style="ellipse;whiteSpace=wrap;html=1;" parent="1" vertex="1">
          <mxGeometry x="790" y="760" width="110" height="60" as="geometry" />
        </mxCell>
        <mxCell id="Sk-MJQxs3zckdXy--k0k-50" value="" style="endArrow=none;html=1;rounded=0;entryX=0.839;entryY=0.673;entryDx=0;entryDy=0;entryPerimeter=0;" parent="1" target="Sk-MJQxs3zckdXy--k0k-43" edge="1">
          <mxGeometry width="50" height="50" relative="1" as="geometry">
            <mxPoint x="790" y="850" as="sourcePoint" />
            <mxPoint x="790" y="820" as="targetPoint" />
          </mxGeometry>
        </mxCell>
        <mxCell id="Sk-MJQxs3zckdXy--k0k-51" value="Return Date" style="ellipse;whiteSpace=wrap;html=1;" parent="1" vertex="1">
          <mxGeometry x="780" y="830" width="110" height="60" as="geometry" />
        </mxCell>
        <mxCell id="Sk-MJQxs3zckdXy--k0k-52" value="" style="endArrow=none;html=1;rounded=0;entryX=1;entryY=1;entryDx=0;entryDy=0;" parent="1" target="Sk-MJQxs3zckdXy--k0k-43" edge="1">
          <mxGeometry width="50" height="50" relative="1" as="geometry">
            <mxPoint x="740" y="880" as="sourcePoint" />
            <mxPoint x="745" y="860" as="targetPoint" />
          </mxGeometry>
        </mxCell>
        <mxCell id="Sk-MJQxs3zckdXy--k0k-53" value="Extension Date" style="ellipse;whiteSpace=wrap;html=1;" parent="1" vertex="1">
          <mxGeometry x="700" y="880" width="110" height="60" as="geometry" />
        </mxCell>
        <mxCell id="Sk-MJQxs3zckdXy--k0k-54" value="" style="endArrow=none;html=1;rounded=0;entryX=0.433;entryY=0.908;entryDx=0;entryDy=0;entryPerimeter=0;" parent="1" target="Sk-MJQxs3zckdXy--k0k-43" edge="1">
          <mxGeometry width="50" height="50" relative="1" as="geometry">
            <mxPoint x="660" y="910" as="sourcePoint" />
            <mxPoint x="600" y="780" as="targetPoint" />
          </mxGeometry>
        </mxCell>
        <mxCell id="Sk-MJQxs3zckdXy--k0k-55" value="Count of Extensions" style="ellipse;whiteSpace=wrap;html=1;" parent="1" vertex="1">
          <mxGeometry x="590" y="910" width="120" height="60" as="geometry" />
        </mxCell>
        <mxCell id="Sk-MJQxs3zckdXy--k0k-57" style="edgeStyle=orthogonalEdgeStyle;rounded=0;orthogonalLoop=1;jettySize=auto;html=1;exitX=1;exitY=0.5;exitDx=0;exitDy=0;entryX=0;entryY=0.5;entryDx=0;entryDy=0;endArrow=none;endFill=0;" parent="1" source="Sk-MJQxs3zckdXy--k0k-56" target="Sk-MJQxs3zckdXy--k0k-43" edge="1">
          <mxGeometry relative="1" as="geometry" />
        </mxCell>
        <mxCell id="Sk-MJQxs3zckdXy--k0k-59" value="&lt;font style=&quot;font-size: 14px;&quot;&gt;N&lt;/font&gt;" style="edgeLabel;html=1;align=center;verticalAlign=middle;resizable=0;points=[];" parent="Sk-MJQxs3zckdXy--k0k-57" vertex="1" connectable="0">
          <mxGeometry x="0.5522" y="2" relative="1" as="geometry">
            <mxPoint x="1" y="-8" as="offset" />
          </mxGeometry>
        </mxCell>
        <mxCell id="Sk-MJQxs3zckdXy--k0k-56" value="Book_Copy" style="shape=ext;margin=3;double=1;whiteSpace=wrap;html=1;align=center;" parent="1" vertex="1">
          <mxGeometry x="410" y="780" width="120" height="60" as="geometry" />
        </mxCell>
        <mxCell id="Sk-MJQxs3zckdXy--k0k-60" value="" style="endArrow=none;html=1;rounded=0;entryX=0.875;entryY=-0.047;entryDx=0;entryDy=0;entryPerimeter=0;" parent="1" target="Sk-MJQxs3zckdXy--k0k-56" edge="1">
          <mxGeometry relative="1" as="geometry">
            <mxPoint x="560" y="720" as="sourcePoint" />
            <mxPoint x="380" y="720" as="targetPoint" />
          </mxGeometry>
        </mxCell>
        <mxCell id="Sk-MJQxs3zckdXy--k0k-61" value="Copy_No" style="ellipse;whiteSpace=wrap;html=1;" parent="1" vertex="1">
          <mxGeometry x="530" y="680" width="110" height="60" as="geometry" />
        </mxCell>
        <mxCell id="Sk-MJQxs3zckdXy--k0k-62" value="" style="endArrow=none;html=1;rounded=0;dashed=1;" parent="1" edge="1">
          <mxGeometry relative="1" as="geometry">
            <mxPoint x="560" y="720" as="sourcePoint" />
            <mxPoint x="610" y="720" as="targetPoint" />
          </mxGeometry>
        </mxCell>
        <mxCell id="Sk-MJQxs3zckdXy--k0k-63" value="" style="endArrow=none;html=1;rounded=0;entryX=0.75;entryY=1;entryDx=0;entryDy=0;" parent="1" target="Sk-MJQxs3zckdXy--k0k-56" edge="1">
          <mxGeometry relative="1" as="geometry">
            <mxPoint x="530" y="880" as="sourcePoint" />
            <mxPoint x="440" y="840" as="targetPoint" />
          </mxGeometry>
        </mxCell>
        <mxCell id="Sk-MJQxs3zckdXy--k0k-64" value="On_Hold" style="ellipse;whiteSpace=wrap;html=1;" parent="1" vertex="1">
          <mxGeometry x="495" y="870" width="120" height="50" as="geometry" />
        </mxCell>
        <mxCell id="Sk-MJQxs3zckdXy--k0k-67" value="" style="endArrow=none;html=1;rounded=0;entryX=0.5;entryY=0;entryDx=0;entryDy=0;" parent="1" target="Sk-MJQxs3zckdXy--k0k-56" edge="1">
          <mxGeometry relative="1" as="geometry">
            <mxPoint x="470" y="720" as="sourcePoint" />
            <mxPoint x="440" y="840" as="targetPoint" />
          </mxGeometry>
        </mxCell>
        <mxCell id="Sk-MJQxs3zckdXy--k0k-68" value="Damaged" style="ellipse;whiteSpace=wrap;html=1;" parent="1" vertex="1">
          <mxGeometry x="410" y="670" width="120" height="50" as="geometry" />
        </mxCell>
        <mxCell id="Sk-MJQxs3zckdXy--k0k-71" style="edgeStyle=orthogonalEdgeStyle;rounded=0;orthogonalLoop=1;jettySize=auto;html=1;exitX=1;exitY=0.5;exitDx=0;exitDy=0;endArrow=none;endFill=0;" parent="1" source="Sk-MJQxs3zckdXy--k0k-69" target="Sk-MJQxs3zckdXy--k0k-70" edge="1">
          <mxGeometry relative="1" as="geometry" />
        </mxCell>
        <mxCell id="Sk-MJQxs3zckdXy--k0k-73" value="&lt;font style=&quot;font-size: 15px;&quot;&gt;1&lt;/font&gt;" style="edgeLabel;html=1;align=center;verticalAlign=middle;resizable=0;points=[];" parent="Sk-MJQxs3zckdXy--k0k-71" vertex="1" connectable="0">
          <mxGeometry x="0.7134" y="-1" relative="1" as="geometry">
            <mxPoint y="-11" as="offset" />
          </mxGeometry>
        </mxCell>
        <mxCell id="Sk-MJQxs3zckdXy--k0k-91" style="edgeStyle=orthogonalEdgeStyle;rounded=0;orthogonalLoop=1;jettySize=auto;html=1;exitX=0.25;exitY=1;exitDx=0;exitDy=0;entryX=0.5;entryY=0;entryDx=0;entryDy=0;endArrow=none;endFill=0;" parent="1" source="Sk-MJQxs3zckdXy--k0k-69" target="Sk-MJQxs3zckdXy--k0k-90" edge="1">
          <mxGeometry relative="1" as="geometry" />
        </mxCell>
        <mxCell id="Sk-MJQxs3zckdXy--k0k-97" value="&lt;font style=&quot;font-size: 15px;&quot;&gt;M&lt;/font&gt;" style="edgeLabel;html=1;align=center;verticalAlign=middle;resizable=0;points=[];" parent="Sk-MJQxs3zckdXy--k0k-91" vertex="1" connectable="0">
          <mxGeometry x="0.9003" y="1" relative="1" as="geometry">
            <mxPoint x="9" as="offset" />
          </mxGeometry>
        </mxCell>
        <mxCell id="Sk-MJQxs3zckdXy--k0k-69" value="Book" style="whiteSpace=wrap;html=1;align=center;" parent="1" vertex="1">
          <mxGeometry x="-100" y="780" width="110" height="60" as="geometry" />
        </mxCell>
        <mxCell id="Sk-MJQxs3zckdXy--k0k-72" style="edgeStyle=orthogonalEdgeStyle;rounded=0;orthogonalLoop=1;jettySize=auto;html=1;exitX=1;exitY=0.5;exitDx=0;exitDy=0;entryX=0;entryY=0.5;entryDx=0;entryDy=0;endArrow=none;endFill=0;" parent="1" source="Sk-MJQxs3zckdXy--k0k-70" target="Sk-MJQxs3zckdXy--k0k-56" edge="1">
          <mxGeometry relative="1" as="geometry" />
        </mxCell>
        <mxCell id="Sk-MJQxs3zckdXy--k0k-74" value="&lt;font style=&quot;font-size: 15px;&quot;&gt;M&lt;/font&gt;" style="edgeLabel;html=1;align=center;verticalAlign=middle;resizable=0;points=[];" parent="Sk-MJQxs3zckdXy--k0k-72" vertex="1" connectable="0">
          <mxGeometry x="-0.686" y="1" relative="1" as="geometry">
            <mxPoint y="-9" as="offset" />
          </mxGeometry>
        </mxCell>
        <mxCell id="Sk-MJQxs3zckdXy--k0k-70" value="HAS" style="shape=rhombus;double=1;perimeter=rhombusPerimeter;whiteSpace=wrap;html=1;align=center;" parent="1" vertex="1">
          <mxGeometry x="160" y="780" width="120" height="60" as="geometry" />
        </mxCell>
        <mxCell id="Sk-MJQxs3zckdXy--k0k-75" value="" style="endArrow=none;html=1;rounded=0;entryX=1;entryY=0;entryDx=0;entryDy=0;" parent="1" target="Sk-MJQxs3zckdXy--k0k-69" edge="1">
          <mxGeometry relative="1" as="geometry">
            <mxPoint x="50" y="760" as="sourcePoint" />
            <mxPoint x="-10" y="790" as="targetPoint" />
          </mxGeometry>
        </mxCell>
        <mxCell id="Sk-MJQxs3zckdXy--k0k-76" value="Authors" style="ellipse;shape=doubleEllipse;margin=3;whiteSpace=wrap;html=1;align=center;" parent="1" vertex="1">
          <mxGeometry x="10" y="720" width="110" height="50" as="geometry" />
        </mxCell>
        <mxCell id="Sk-MJQxs3zckdXy--k0k-77" value="" style="endArrow=none;html=1;rounded=0;entryX=0.812;entryY=-0.017;entryDx=0;entryDy=0;entryPerimeter=0;" parent="1" target="Sk-MJQxs3zckdXy--k0k-69" edge="1">
          <mxGeometry relative="1" as="geometry">
            <mxPoint y="710" as="sourcePoint" />
            <mxPoint x="-10" y="790" as="targetPoint" />
          </mxGeometry>
        </mxCell>
        <mxCell id="Sk-MJQxs3zckdXy--k0k-78" value="Title" style="ellipse;whiteSpace=wrap;html=1;align=center;" parent="1" vertex="1">
          <mxGeometry x="-50" y="675" width="100" height="40" as="geometry" />
        </mxCell>
        <mxCell id="Sk-MJQxs3zckdXy--k0k-79" value="" style="endArrow=none;html=1;rounded=0;entryX=0.5;entryY=0;entryDx=0;entryDy=0;" parent="1" target="Sk-MJQxs3zckdXy--k0k-69" edge="1">
          <mxGeometry relative="1" as="geometry">
            <mxPoint x="-70" y="730" as="sourcePoint" />
            <mxPoint x="20" y="790" as="targetPoint" />
          </mxGeometry>
        </mxCell>
        <mxCell id="Sk-MJQxs3zckdXy--k0k-81" value="&lt;b&gt;ISBN&lt;/b&gt;" style="ellipse;whiteSpace=wrap;html=1;align=center;fontStyle=4;" parent="1" vertex="1">
          <mxGeometry x="-130" y="710" width="100" height="40" as="geometry" />
        </mxCell>
        <mxCell id="Sk-MJQxs3zckdXy--k0k-82" value="" style="endArrow=none;html=1;rounded=0;entryX=0;entryY=0.25;entryDx=0;entryDy=0;" parent="1" target="Sk-MJQxs3zckdXy--k0k-69" edge="1">
          <mxGeometry relative="1" as="geometry">
            <mxPoint x="-150" y="760" as="sourcePoint" />
            <mxPoint x="90" y="790" as="targetPoint" />
          </mxGeometry>
        </mxCell>
        <mxCell id="Sk-MJQxs3zckdXy--k0k-83" value="Edition" style="ellipse;whiteSpace=wrap;html=1;align=center;" parent="1" vertex="1">
          <mxGeometry x="-210" y="750" width="100" height="40" as="geometry" />
        </mxCell>
        <mxCell id="Sk-MJQxs3zckdXy--k0k-84" value="" style="endArrow=none;html=1;rounded=0;entryX=0;entryY=0.75;entryDx=0;entryDy=0;" parent="1" target="Sk-MJQxs3zckdXy--k0k-69" edge="1">
          <mxGeometry relative="1" as="geometry">
            <mxPoint x="-160" y="820" as="sourcePoint" />
            <mxPoint x="90" y="790" as="targetPoint" />
          </mxGeometry>
        </mxCell>
        <mxCell id="Sk-MJQxs3zckdXy--k0k-85" value="Publisher" style="ellipse;whiteSpace=wrap;html=1;align=center;" parent="1" vertex="1">
          <mxGeometry x="-230" y="800" width="100" height="40" as="geometry" />
        </mxCell>
        <mxCell id="Sk-MJQxs3zckdXy--k0k-86" value="" style="endArrow=none;html=1;rounded=0;entryX=1;entryY=0.25;entryDx=0;entryDy=0;" parent="1" target="Sk-MJQxs3zckdXy--k0k-69" edge="1">
          <mxGeometry relative="1" as="geometry">
            <mxPoint x="140" y="760" as="sourcePoint" />
            <mxPoint x="90" y="790" as="targetPoint" />
          </mxGeometry>
        </mxCell>
        <mxCell id="Sk-MJQxs3zckdXy--k0k-87" value="Place of Publication" style="ellipse;whiteSpace=wrap;html=1;align=center;" parent="1" vertex="1">
          <mxGeometry x="130" y="730" width="100" height="40" as="geometry" />
        </mxCell>
        <mxCell id="Sk-MJQxs3zckdXy--k0k-88" value="" style="endArrow=none;html=1;rounded=0;entryX=0.003;entryY=0.929;entryDx=0;entryDy=0;entryPerimeter=0;" parent="1" target="Sk-MJQxs3zckdXy--k0k-69" edge="1">
          <mxGeometry relative="1" as="geometry">
            <mxPoint x="-130" y="850" as="sourcePoint" />
            <mxPoint x="-100" y="830" as="targetPoint" />
          </mxGeometry>
        </mxCell>
        <mxCell id="Sk-MJQxs3zckdXy--k0k-89" value="CopyRight Year" style="ellipse;whiteSpace=wrap;html=1;align=center;" parent="1" vertex="1">
          <mxGeometry x="-200" y="840" width="100" height="40" as="geometry" />
        </mxCell>
        <mxCell id="Sk-MJQxs3zckdXy--k0k-104" style="edgeStyle=orthogonalEdgeStyle;rounded=0;orthogonalLoop=1;jettySize=auto;html=1;exitX=0.5;exitY=1;exitDx=0;exitDy=0;entryX=0.5;entryY=0;entryDx=0;entryDy=0;endArrow=none;endFill=0;" parent="1" source="Sk-MJQxs3zckdXy--k0k-90" target="Sk-MJQxs3zckdXy--k0k-98" edge="1">
          <mxGeometry relative="1" as="geometry" />
        </mxCell>
        <mxCell id="Sk-MJQxs3zckdXy--k0k-107" value="&lt;font style=&quot;font-size: 15px;&quot;&gt;1&lt;/font&gt;" style="edgeLabel;html=1;align=center;verticalAlign=middle;resizable=0;points=[];" parent="Sk-MJQxs3zckdXy--k0k-104" vertex="1" connectable="0">
          <mxGeometry x="-0.4344" y="-1" relative="1" as="geometry">
            <mxPoint x="-9" as="offset" />
          </mxGeometry>
        </mxCell>
        <mxCell id="Sk-MJQxs3zckdXy--k0k-90" value="Located On" style="shape=rhombus;perimeter=rhombusPerimeter;whiteSpace=wrap;html=1;align=center;" parent="1" vertex="1">
          <mxGeometry x="-220" y="1000" width="120" height="60" as="geometry" />
        </mxCell>
        <mxCell id="Sk-MJQxs3zckdXy--k0k-106" style="edgeStyle=orthogonalEdgeStyle;rounded=0;orthogonalLoop=1;jettySize=auto;html=1;exitX=0.5;exitY=1;exitDx=0;exitDy=0;entryX=0.5;entryY=0;entryDx=0;entryDy=0;endArrow=none;endFill=0;" parent="1" source="Sk-MJQxs3zckdXy--k0k-92" target="Sk-MJQxs3zckdXy--k0k-105" edge="1">
          <mxGeometry relative="1" as="geometry" />
        </mxCell>
        <mxCell id="Sk-MJQxs3zckdXy--k0k-92" value="Belongs To" style="shape=rhombus;perimeter=rhombusPerimeter;whiteSpace=wrap;html=1;align=center;" parent="1" vertex="1">
          <mxGeometry x="10" y="1000" width="120" height="60" as="geometry" />
        </mxCell>
        <mxCell id="Sk-MJQxs3zckdXy--k0k-94" value="" style="shape=link;html=1;rounded=0;entryX=0.821;entryY=1.072;entryDx=0;entryDy=0;entryPerimeter=0;exitX=0.5;exitY=0;exitDx=0;exitDy=0;" parent="1" source="Sk-MJQxs3zckdXy--k0k-92" target="Sk-MJQxs3zckdXy--k0k-69" edge="1">
          <mxGeometry relative="1" as="geometry">
            <mxPoint x="-190" y="940" as="sourcePoint" />
            <mxPoint x="-30" y="940" as="targetPoint" />
            <Array as="points">
              <mxPoint x="70" y="920" />
              <mxPoint x="-10" y="920" />
            </Array>
          </mxGeometry>
        </mxCell>
        <mxCell id="Sk-MJQxs3zckdXy--k0k-96" value="&lt;font style=&quot;font-size: 15px;&quot;&gt;N&lt;/font&gt;" style="edgeLabel;html=1;align=center;verticalAlign=middle;resizable=0;points=[];" parent="Sk-MJQxs3zckdXy--k0k-94" vertex="1" connectable="0">
          <mxGeometry x="-0.8331" y="5" relative="1" as="geometry">
            <mxPoint x="-15" y="10" as="offset" />
          </mxGeometry>
        </mxCell>
        <mxCell id="Sk-MJQxs3zckdXy--k0k-98" value="Shelf" style="whiteSpace=wrap;html=1;align=center;" parent="1" vertex="1">
          <mxGeometry x="-215" y="1130" width="110" height="60" as="geometry" />
        </mxCell>
        <mxCell id="Sk-MJQxs3zckdXy--k0k-99" value="" style="endArrow=none;html=1;rounded=0;entryX=0.25;entryY=1;entryDx=0;entryDy=0;" parent="1" target="Sk-MJQxs3zckdXy--k0k-98" edge="1">
          <mxGeometry relative="1" as="geometry">
            <mxPoint x="-230" y="1240" as="sourcePoint" />
            <mxPoint x="-60" y="1100" as="targetPoint" />
          </mxGeometry>
        </mxCell>
        <mxCell id="Sk-MJQxs3zckdXy--k0k-100" value="&lt;b&gt;Shelf_No&lt;/b&gt;" style="ellipse;whiteSpace=wrap;html=1;align=center;fontStyle=4;" parent="1" vertex="1">
          <mxGeometry x="-280" y="1230" width="100" height="40" as="geometry" />
        </mxCell>
        <mxCell id="Sk-MJQxs3zckdXy--k0k-102" value="" style="endArrow=none;html=1;rounded=0;entryX=0.75;entryY=1;entryDx=0;entryDy=0;" parent="1" target="Sk-MJQxs3zckdXy--k0k-98" edge="1">
          <mxGeometry relative="1" as="geometry">
            <mxPoint x="-100" y="1240" as="sourcePoint" />
            <mxPoint x="-60" y="1100" as="targetPoint" />
          </mxGeometry>
        </mxCell>
        <mxCell id="Sk-MJQxs3zckdXy--k0k-103" value="Aisle_No" style="ellipse;whiteSpace=wrap;html=1;align=center;" parent="1" vertex="1">
          <mxGeometry x="-150" y="1230" width="100" height="40" as="geometry" />
        </mxCell>
        <mxCell id="Sk-MJQxs3zckdXy--k0k-113" style="edgeStyle=orthogonalEdgeStyle;rounded=0;orthogonalLoop=1;jettySize=auto;html=1;exitX=1;exitY=0.5;exitDx=0;exitDy=0;entryX=0;entryY=0.5;entryDx=0;entryDy=0;endArrow=none;endFill=0;" parent="1" source="Sk-MJQxs3zckdXy--k0k-105" target="Sk-MJQxs3zckdXy--k0k-112" edge="1">
          <mxGeometry relative="1" as="geometry" />
        </mxCell>
        <mxCell id="Sk-MJQxs3zckdXy--k0k-105" value="Subject" style="whiteSpace=wrap;html=1;align=center;" parent="1" vertex="1">
          <mxGeometry x="15" y="1130" width="110" height="60" as="geometry" />
        </mxCell>
        <mxCell id="Sk-MJQxs3zckdXy--k0k-108" value="" style="endArrow=none;html=1;rounded=0;exitX=0.75;exitY=1;exitDx=0;exitDy=0;entryX=0;entryY=0;entryDx=0;entryDy=0;" parent="1" source="Sk-MJQxs3zckdXy--k0k-105" target="Sk-MJQxs3zckdXy--k0k-109" edge="1">
          <mxGeometry relative="1" as="geometry">
            <mxPoint x="-10" y="1150" as="sourcePoint" />
            <mxPoint x="130" y="1240" as="targetPoint" />
          </mxGeometry>
        </mxCell>
        <mxCell id="Sk-MJQxs3zckdXy--k0k-109" value="No_Of_Journals" style="ellipse;whiteSpace=wrap;html=1;align=center;" parent="1" vertex="1">
          <mxGeometry x="125" y="1230" width="100" height="40" as="geometry" />
        </mxCell>
        <mxCell id="Sk-MJQxs3zckdXy--k0k-110" value="Keywords" style="ellipse;shape=doubleEllipse;margin=3;whiteSpace=wrap;html=1;align=center;" parent="1" vertex="1">
          <mxGeometry x="-40" y="1230" width="100" height="40" as="geometry" />
        </mxCell>
        <mxCell id="Sk-MJQxs3zckdXy--k0k-111" value="" style="endArrow=none;html=1;rounded=0;entryX=0.358;entryY=0.974;entryDx=0;entryDy=0;entryPerimeter=0;" parent="1" source="Sk-MJQxs3zckdXy--k0k-110" target="Sk-MJQxs3zckdXy--k0k-105" edge="1">
          <mxGeometry relative="1" as="geometry">
            <mxPoint x="-200" y="1150" as="sourcePoint" />
            <mxPoint x="-40" y="1150" as="targetPoint" />
          </mxGeometry>
        </mxCell>
        <mxCell id="Sk-MJQxs3zckdXy--k0k-112" value="&lt;b&gt;Name&lt;/b&gt;" style="ellipse;whiteSpace=wrap;html=1;align=center;fontStyle=4;" parent="1" vertex="1">
          <mxGeometry x="160" y="1140" width="100" height="40" as="geometry" />
        </mxCell>
        <mxCell id="Sk-MJQxs3zckdXy--k0k-114" value="Floor" style="whiteSpace=wrap;html=1;align=center;" parent="1" vertex="1">
          <mxGeometry x="-80" y="1530" width="100" height="40" as="geometry" />
        </mxCell>
        <mxCell id="Sk-MJQxs3zckdXy--k0k-116" style="edgeStyle=orthogonalEdgeStyle;rounded=0;orthogonalLoop=1;jettySize=auto;html=1;exitX=0.5;exitY=1;exitDx=0;exitDy=0;entryX=0;entryY=0.75;entryDx=0;entryDy=0;endArrow=none;endFill=0;" parent="1" source="Sk-MJQxs3zckdXy--k0k-115" target="Sk-MJQxs3zckdXy--k0k-114" edge="1">
          <mxGeometry relative="1" as="geometry" />
        </mxCell>
        <mxCell id="Sk-MJQxs3zckdXy--k0k-121" value="&lt;font style=&quot;font-size: 15px;&quot;&gt;1&lt;/font&gt;" style="edgeLabel;html=1;align=center;verticalAlign=middle;resizable=0;points=[];" parent="Sk-MJQxs3zckdXy--k0k-116" vertex="1" connectable="0">
          <mxGeometry x="-0.8019" relative="1" as="geometry">
            <mxPoint x="20" y="2" as="offset" />
          </mxGeometry>
        </mxCell>
        <mxCell id="Sk-MJQxs3zckdXy--k0k-115" value="Has" style="shape=rhombus;perimeter=rhombusPerimeter;whiteSpace=wrap;html=1;align=center;" parent="1" vertex="1">
          <mxGeometry x="-222.5" y="1430" width="125" height="60" as="geometry" />
        </mxCell>
        <mxCell id="Sk-MJQxs3zckdXy--k0k-118" value="" style="shape=link;html=1;rounded=0;entryX=0.5;entryY=0;entryDx=0;entryDy=0;exitX=0.5;exitY=1;exitDx=0;exitDy=0;" parent="1" source="Sk-MJQxs3zckdXy--k0k-98" target="Sk-MJQxs3zckdXy--k0k-115" edge="1">
          <mxGeometry relative="1" as="geometry">
            <mxPoint x="-40" y="1360" as="sourcePoint" />
            <mxPoint x="120" y="1360" as="targetPoint" />
          </mxGeometry>
        </mxCell>
        <mxCell id="Sk-MJQxs3zckdXy--k0k-120" value="&lt;font style=&quot;font-size: 15px;&quot;&gt;M&lt;/font&gt;" style="edgeLabel;html=1;align=center;verticalAlign=middle;resizable=0;points=[];" parent="Sk-MJQxs3zckdXy--k0k-118" vertex="1" connectable="0">
          <mxGeometry x="0.7421" y="3" relative="1" as="geometry">
            <mxPoint x="17" y="21" as="offset" />
          </mxGeometry>
        </mxCell>
        <mxCell id="Sk-MJQxs3zckdXy--k0k-122" value="Is On" style="shape=rhombus;perimeter=rhombusPerimeter;whiteSpace=wrap;html=1;align=center;" parent="1" vertex="1">
          <mxGeometry x="15" y="1430" width="125" height="60" as="geometry" />
        </mxCell>
        <mxCell id="Sk-MJQxs3zckdXy--k0k-123" value="" style="shape=link;html=1;rounded=0;entryX=0.5;entryY=0;entryDx=0;entryDy=0;exitX=0.5;exitY=1;exitDx=0;exitDy=0;" parent="1" edge="1">
          <mxGeometry relative="1" as="geometry">
            <mxPoint x="76.97" y="1190" as="sourcePoint" />
            <mxPoint x="76.97" y="1430" as="targetPoint" />
          </mxGeometry>
        </mxCell>
        <mxCell id="Sk-MJQxs3zckdXy--k0k-124" value="&lt;font style=&quot;font-size: 15px;&quot;&gt;M&lt;/font&gt;" style="edgeLabel;html=1;align=center;verticalAlign=middle;resizable=0;points=[];" parent="Sk-MJQxs3zckdXy--k0k-123" vertex="1" connectable="0">
          <mxGeometry x="0.7421" y="3" relative="1" as="geometry">
            <mxPoint x="17" y="21" as="offset" />
          </mxGeometry>
        </mxCell>
        <mxCell id="Sk-MJQxs3zckdXy--k0k-125" style="edgeStyle=orthogonalEdgeStyle;rounded=0;orthogonalLoop=1;jettySize=auto;html=1;exitX=0.5;exitY=1;exitDx=0;exitDy=0;entryX=1;entryY=0.75;entryDx=0;entryDy=0;endArrow=none;endFill=0;" parent="1" source="Sk-MJQxs3zckdXy--k0k-122" target="Sk-MJQxs3zckdXy--k0k-114" edge="1">
          <mxGeometry relative="1" as="geometry">
            <mxPoint x="80" y="1515" as="sourcePoint" />
            <mxPoint x="190" y="1585" as="targetPoint" />
          </mxGeometry>
        </mxCell>
        <mxCell id="Sk-MJQxs3zckdXy--k0k-126" value="&lt;font style=&quot;font-size: 15px;&quot;&gt;1&lt;/font&gt;" style="edgeLabel;html=1;align=center;verticalAlign=middle;resizable=0;points=[];" parent="Sk-MJQxs3zckdXy--k0k-125" vertex="1" connectable="0">
          <mxGeometry x="-0.8019" relative="1" as="geometry">
            <mxPoint x="20" y="2" as="offset" />
          </mxGeometry>
        </mxCell>
        <mxCell id="Sk-MJQxs3zckdXy--k0k-127" value="" style="endArrow=none;html=1;rounded=0;entryX=0.25;entryY=1;entryDx=0;entryDy=0;" parent="1" target="Sk-MJQxs3zckdXy--k0k-114" edge="1">
          <mxGeometry relative="1" as="geometry">
            <mxPoint x="-150" y="1610" as="sourcePoint" />
            <mxPoint x="120" y="1410" as="targetPoint" />
          </mxGeometry>
        </mxCell>
        <mxCell id="Sk-MJQxs3zckdXy--k0k-129" value="&lt;b&gt;Floor_No&lt;/b&gt;" style="ellipse;whiteSpace=wrap;html=1;align=center;fontStyle=4;" parent="1" vertex="1">
          <mxGeometry x="-205" y="1590" width="100" height="40" as="geometry" />
        </mxCell>
        <mxCell id="Sk-MJQxs3zckdXy--k0k-130" value="No_of_Student_Assistants" style="ellipse;whiteSpace=wrap;html=1;align=center;" parent="1" vertex="1">
          <mxGeometry x="-140" y="1630" width="150" height="70" as="geometry" />
        </mxCell>
        <mxCell id="Sk-MJQxs3zckdXy--k0k-131" value="" style="endArrow=none;html=1;rounded=0;entryX=0.5;entryY=1;entryDx=0;entryDy=0;exitX=0.5;exitY=0;exitDx=0;exitDy=0;" parent="1" source="Sk-MJQxs3zckdXy--k0k-130" target="Sk-MJQxs3zckdXy--k0k-114" edge="1">
          <mxGeometry relative="1" as="geometry">
            <mxPoint x="-40" y="1450" as="sourcePoint" />
            <mxPoint x="120" y="1450" as="targetPoint" />
          </mxGeometry>
        </mxCell>
        <mxCell id="Sk-MJQxs3zckdXy--k0k-132" value="No_of_copiers" style="ellipse;whiteSpace=wrap;html=1;align=center;" parent="1" vertex="1">
          <mxGeometry x="40" y="1630" width="100" height="40" as="geometry" />
        </mxCell>
        <mxCell id="Sk-MJQxs3zckdXy--k0k-133" value="" style="endArrow=none;html=1;rounded=0;entryX=0;entryY=0;entryDx=0;entryDy=0;exitX=0.75;exitY=1;exitDx=0;exitDy=0;" parent="1" source="Sk-MJQxs3zckdXy--k0k-114" target="Sk-MJQxs3zckdXy--k0k-132" edge="1">
          <mxGeometry relative="1" as="geometry">
            <mxPoint x="-40" y="1450" as="sourcePoint" />
            <mxPoint x="120" y="1450" as="targetPoint" />
          </mxGeometry>
        </mxCell>
        <mxCell id="qP41RjbDTBVxGbaWCLA5-2" value="Phone Number" style="ellipse;whiteSpace=wrap;html=1;" vertex="1" parent="1">
          <mxGeometry x="970" y="410" width="100" height="60" as="geometry" />
        </mxCell>
        <mxCell id="qP41RjbDTBVxGbaWCLA5-4" value="Phone Number" style="ellipse;whiteSpace=wrap;html=1;" vertex="1" parent="1">
          <mxGeometry x="705" y="560" width="100" height="60" as="geometry" />
        </mxCell>
        <mxCell id="qP41RjbDTBVxGbaWCLA5-5" value="" style="endArrow=none;html=1;rounded=0;entryX=0.5;entryY=0;entryDx=0;entryDy=0;exitX=0.908;exitY=1.017;exitDx=0;exitDy=0;exitPerimeter=0;" edge="1" parent="1" source="Sk-MJQxs3zckdXy--k0k-12" target="qP41RjbDTBVxGbaWCLA5-4">
          <mxGeometry width="50" height="50" relative="1" as="geometry">
            <mxPoint x="750" y="420" as="sourcePoint" />
            <mxPoint x="800" y="370" as="targetPoint" />
            <Array as="points">
              <mxPoint x="720" y="520" />
            </Array>
          </mxGeometry>
        </mxCell>
      </root>
    </mxGraphModel>
  </diagram>
</mxfile>
